<svg xmlns="http://www.w3.org/2000/svg" xmlns:xlink="http://www.w3.org/1999/xlink" width="300" zoomAndPan="magnify" viewBox="0 0 224.87999 809.999994" height="1200" preserveAspectRatio="xMidYMid meet" version="1.0"><defs><g/><clipPath id="a013ae784d"><path d="M 22.488281 119.851562 L 173.90625 119.851562 L 173.90625 271.269531 L 22.488281 271.269531 Z M 22.488281 119.851562 " clip-rule="nonzero"/></clipPath><clipPath id="f5f5154891"><path d="M 39.390625 652 L 185.5625 652 L 185.5625 794.488281 L 39.390625 794.488281 Z M 39.390625 652 " clip-rule="nonzero"/></clipPath><clipPath id="99bcd112cf"><path d="M 72 628.828125 L 113 628.828125 L 113 669 L 72 669 Z M 72 628.828125 " clip-rule="nonzero"/></clipPath></defs><g clip-path="url(#a013ae784d)"><path fill="#004aad" d="M 153.199219 250.625 C 166.050781 243.25 173.671875 231.710938 173.671875 219.511719 C 173.671875 208.945312 168.171875 199.050781 158.179688 191.644531 C 148.359375 184.371094 135.328125 180.359375 121.492188 180.359375 C 120.445312 180.359375 119.398438 180.386719 118.359375 180.433594 C 123.863281 174.101562 126.847656 166.648438 126.847656 159.007812 C 126.847656 148.441406 121.34375 138.546875 111.351562 131.140625 C 101.53125 123.863281 88.503906 119.855469 74.667969 119.855469 C 60.832031 119.855469 47.804688 123.863281 37.980469 131.140625 C 27.992188 138.542969 22.488281 148.4375 22.488281 159.007812 C 22.488281 171.210938 30.109375 182.742188 42.960938 190.125 C 40.667969 196.65625 36.933594 202.710938 32.109375 207.71875 C 31.566406 208.28125 31.425781 209.125 31.761719 209.832031 C 32.074219 210.496094 32.742188 210.914062 33.464844 210.914062 C 33.511719 210.914062 33.5625 210.914062 33.609375 210.910156 C 46.753906 209.890625 58.726562 205.238281 67.433594 197.785156 C 70.839844 198.136719 74.328125 198.230469 77.78125 198.078125 C 72.269531 204.386719 69.308594 211.765625 69.308594 219.511719 C 69.308594 230.078125 74.8125 239.972656 84.800781 247.378906 C 94.621094 254.652344 107.652344 258.664062 121.488281 258.664062 C 123.90625 258.664062 126.332031 258.539062 128.714844 258.292969 C 137.421875 265.746094 149.394531 270.398438 162.539062 271.417969 C 162.589844 271.421875 162.636719 271.421875 162.683594 271.421875 C 163.410156 271.421875 164.074219 271.003906 164.386719 270.339844 C 164.722656 269.632812 164.582031 268.792969 164.039062 268.230469 C 159.214844 263.222656 155.480469 257.164062 153.1875 250.632812 Z M 67.042969 193.945312 C 66.507812 193.882812 65.972656 194.050781 65.570312 194.40625 C 58.464844 200.71875 48.839844 204.96875 38.097656 206.597656 C 42.070312 201.59375 45.132812 195.867188 47.046875 189.796875 C 47.320312 188.933594 46.9375 187.996094 46.136719 187.5625 C 33.691406 180.902344 26.261719 170.226562 26.261719 159.003906 C 26.261719 139.496094 47.976562 123.628906 74.667969 123.628906 C 101.355469 123.628906 123.074219 139.5 123.074219 159.003906 C 123.074219 166.933594 119.367188 174.695312 112.632812 180.917969 C 102.160156 182.25 92.503906 185.945312 84.808594 191.644531 C 83.792969 192.394531 82.824219 193.175781 81.902344 193.980469 C 77.007812 194.515625 71.914062 194.507812 67.039062 193.941406 Z M 130.589844 254.910156 C 130.246094 254.605469 129.796875 254.4375 129.339844 254.4375 C 129.265625 254.4375 129.195312 254.441406 129.121094 254.449219 C 126.617188 254.738281 124.050781 254.886719 121.496094 254.886719 C 94.808594 254.886719 73.089844 239.015625 73.089844 219.511719 C 73.089844 200.007812 94.808594 184.136719 121.496094 184.136719 C 148.1875 184.136719 169.902344 200.007812 169.902344 219.511719 C 169.902344 230.734375 162.472656 241.414062 150.027344 248.074219 C 149.226562 248.5 148.84375 249.4375 149.117188 250.304688 C 151.03125 256.375 154.09375 262.101562 158.066406 267.105469 C 147.324219 265.472656 137.699219 261.226562 130.59375 254.914062 Z M 90.894531 202.03125 C 90.894531 200.992188 91.742188 200.144531 92.78125 200.144531 L 113.578125 200.144531 C 114.617188 200.144531 115.464844 200.992188 115.464844 202.03125 C 115.464844 203.074219 114.617188 203.917969 113.578125 203.917969 L 92.78125 203.917969 C 91.742188 203.917969 90.894531 203.074219 90.894531 202.03125 Z M 90.894531 213.683594 C 90.894531 212.644531 91.742188 211.796875 92.78125 211.796875 L 112.9375 211.796875 C 113.980469 211.796875 114.824219 212.644531 114.824219 213.683594 C 114.824219 214.726562 113.980469 215.570312 112.9375 215.570312 L 92.78125 215.570312 C 91.742188 215.570312 90.894531 214.726562 90.894531 213.683594 Z M 90.894531 225.335938 C 90.894531 224.292969 91.742188 223.449219 92.78125 223.449219 L 120.945312 223.449219 C 121.984375 223.449219 122.832031 224.292969 122.832031 225.335938 C 122.832031 226.375 121.984375 227.222656 120.945312 227.222656 L 92.78125 227.222656 C 91.742188 227.222656 90.894531 226.375 90.894531 225.335938 Z M 150.207031 238.875 L 92.78125 238.875 C 91.742188 238.875 90.894531 238.03125 90.894531 236.988281 C 90.894531 235.949219 91.742188 235.101562 92.78125 235.101562 L 150.207031 235.101562 C 151.246094 235.101562 152.09375 235.949219 152.09375 236.988281 C 152.09375 238.03125 151.246094 238.875 150.207031 238.875 Z M 128.664062 223.992188 C 130.609375 225.558594 132.449219 227.035156 133.6875 228.578125 C 134.046875 229.023438 134.585938 229.28125 135.15625 229.28125 C 135.726562 229.28125 136.269531 229.023438 136.625 228.578125 C 137.867188 227.035156 139.703125 225.554688 141.648438 223.992188 C 144.785156 221.472656 148.339844 218.609375 150.574219 214.539062 C 153.167969 209.8125 152.644531 203.074219 147.285156 199.980469 C 143.210938 197.628906 138.113281 198.601562 135.152344 202.046875 C 132.195312 198.601562 127.097656 197.628906 123.023438 199.980469 C 117.660156 203.074219 117.140625 209.8125 119.734375 214.539062 C 121.964844 218.609375 125.523438 221.472656 128.65625 223.992188 Z M 124.914062 203.25 C 125.835938 202.71875 126.84375 202.464844 127.839844 202.464844 C 129.867188 202.464844 131.84375 203.519531 132.929688 205.394531 C 133.113281 205.710938 133.261719 206.039062 133.382812 206.378906 C 133.648438 207.136719 134.359375 207.640625 135.164062 207.640625 C 135.964844 207.640625 136.679688 207.136719 136.941406 206.378906 C 137.0625 206.039062 137.214844 205.710938 137.394531 205.398438 C 139.011719 202.597656 142.605469 201.636719 145.40625 203.25 C 148.765625 205.191406 148.996094 209.59375 147.273438 212.730469 C 145.402344 216.144531 142.296875 218.640625 139.292969 221.054688 C 137.816406 222.246094 136.394531 223.386719 135.164062 224.601562 C 133.929688 223.386719 132.507812 222.246094 131.03125 221.054688 C 128.027344 218.640625 124.921875 216.144531 123.050781 212.730469 C 121.332031 209.59375 121.558594 205.191406 124.917969 203.25 Z M 100.308594 159.003906 C 100.308594 144.863281 88.808594 133.359375 74.667969 133.359375 C 60.527344 133.359375 49.023438 144.863281 49.023438 159.003906 C 49.023438 173.144531 60.527344 184.644531 74.667969 184.644531 C 88.808594 184.644531 100.308594 173.144531 100.308594 159.003906 Z M 74.667969 180.871094 C 62.609375 180.871094 52.796875 171.0625 52.796875 159.003906 C 52.796875 146.945312 62.609375 137.132812 74.667969 137.132812 C 86.726562 137.132812 96.535156 146.945312 96.535156 159.003906 C 96.535156 171.0625 86.726562 180.871094 74.667969 180.871094 Z M 87.871094 149.757812 C 88.605469 150.496094 88.605469 151.6875 87.871094 152.429688 L 72.042969 168.253906 C 71.6875 168.605469 71.210938 168.808594 70.710938 168.808594 C 70.210938 168.808594 69.730469 168.609375 69.378906 168.253906 L 61.464844 160.339844 C 60.726562 159.605469 60.726562 158.410156 61.464844 157.671875 C 62.199219 156.933594 63.394531 156.933594 64.132812 157.671875 L 70.710938 164.25 L 85.203125 149.753906 C 85.941406 149.019531 87.132812 149.019531 87.875 149.753906 Z M 87.871094 149.757812 " fill-opacity="1" fill-rule="nonzero"/></g><g fill="#004aad" fill-opacity="1"><g transform="translate(54.324754, 371.118083)"><g><path d="M 8.984375 4.21875 C 7.179688 3.519531 5.734375 2.285156 4.640625 0.515625 C 3.554688 -1.253906 2.773438 -3.332031 2.296875 -5.71875 C 1.828125 -8.101562 1.65625 -10.6875 1.78125 -13.46875 C 1.914062 -16.25 2.300781 -19.046875 2.9375 -21.859375 C 3.570312 -24.671875 4.421875 -27.332031 5.484375 -29.84375 C 6.546875 -32.363281 7.804688 -34.5625 9.265625 -36.4375 C 10.722656 -38.320312 12.363281 -39.738281 14.1875 -40.6875 C 16.019531 -41.644531 17.992188 -41.96875 20.109375 -41.65625 C 20.210938 -41.226562 20.367188 -40.484375 20.578125 -39.421875 C 20.796875 -38.359375 21.023438 -37.226562 21.265625 -36.03125 C 21.503906 -34.84375 21.710938 -33.71875 21.890625 -32.65625 C 22.078125 -31.601562 22.222656 -30.863281 22.328125 -30.4375 C 22.441406 -29.96875 22.296875 -29.453125 21.890625 -28.890625 C 21.492188 -28.335938 21.03125 -27.890625 20.5 -27.546875 C 19.976562 -27.203125 19.460938 -27.039062 18.953125 -27.0625 C 18.453125 -27.09375 18.097656 -27.476562 17.890625 -28.21875 C 17.722656 -28.644531 17.613281 -29.253906 17.5625 -30.046875 C 17.507812 -30.835938 17.40625 -31.695312 17.25 -32.625 C 17.09375 -33.550781 16.90625 -34.398438 16.6875 -35.171875 C 16.476562 -35.941406 16.1875 -36.507812 15.8125 -36.875 C 15.445312 -37.25 14.972656 -37.316406 14.390625 -37.078125 C 13.804688 -36.835938 13.113281 -36.109375 12.3125 -34.890625 C 12 -34.578125 11.671875 -34.128906 11.328125 -33.546875 C 10.984375 -32.960938 10.625 -32.378906 10.25 -31.796875 C 9.882812 -31.210938 9.582031 -30.679688 9.34375 -30.203125 C 9.101562 -29.722656 8.984375 -29.429688 8.984375 -29.328125 L 5.5625 -11.453125 C 5.1875 -9.484375 5.210938 -7.71875 5.640625 -6.15625 C 6.066406 -4.59375 6.753906 -3.253906 7.703125 -2.140625 C 8.660156 -1.035156 9.828125 -0.179688 11.203125 0.421875 C 12.585938 1.035156 14.03125 1.382812 15.53125 1.46875 C 17.039062 1.550781 18.59375 1.363281 20.1875 0.90625 C 21.78125 0.457031 23.265625 -0.320312 24.640625 -1.4375 C 25.171875 -1.800781 25.847656 -2.523438 26.671875 -3.609375 C 27.492188 -4.703125 28.367188 -5.910156 29.296875 -7.234375 C 30.222656 -8.554688 31.203125 -9.957031 32.234375 -11.4375 C 33.265625 -12.925781 34.226562 -14.265625 35.125 -15.453125 C 36.03125 -16.648438 36.828125 -17.617188 37.515625 -18.359375 C 38.203125 -19.097656 38.707031 -19.414062 39.03125 -19.3125 C 39.71875 -17.40625 39.703125 -15.40625 38.984375 -13.3125 C 38.273438 -11.21875 37.125 -9.164062 35.53125 -7.15625 C 33.9375 -5.144531 32 -3.273438 29.71875 -1.546875 C 27.445312 0.171875 25.09375 1.570312 22.65625 2.65625 C 20.21875 3.75 17.804688 4.476562 15.421875 4.84375 C 13.035156 5.21875 10.890625 5.007812 8.984375 4.21875 Z M 8.984375 4.21875 "/></g></g></g><g fill="#004aad" fill-opacity="1"><g transform="translate(95.177973, 371.118083)"><g><path d="M 6.515625 1.90625 C 5.398438 0.375 4.738281 -1.367188 4.53125 -3.328125 C 4.320312 -5.296875 4.320312 -7.351562 4.53125 -9.5 C 4.738281 -11.644531 5.082031 -13.816406 5.5625 -16.015625 C 6.039062 -18.210938 6.460938 -20.332031 6.828125 -22.375 C 7.203125 -24.414062 7.398438 -26.320312 7.421875 -28.09375 C 7.453125 -29.875 7.148438 -31.398438 6.515625 -32.671875 C 6.203125 -33.359375 5.738281 -33.6875 5.125 -33.65625 C 4.519531 -33.632812 3.882812 -33.554688 3.21875 -33.421875 C 2.550781 -33.285156 1.898438 -33.226562 1.265625 -33.25 C 0.628906 -33.28125 0.046875 -33.695312 -0.484375 -34.5 C -0.421875 -34.65625 -0.257812 -34.863281 0 -35.125 C 0.257812 -35.394531 0.445312 -35.554688 0.5625 -35.609375 C 4.425781 -36.191406 7.65625 -35.804688 10.25 -34.453125 C 12.84375 -33.097656 14.921875 -31.1875 16.484375 -28.71875 C 18.054688 -26.257812 19.117188 -23.441406 19.671875 -20.265625 C 20.222656 -17.085938 20.421875 -13.9375 20.265625 -10.8125 C 20.109375 -7.6875 19.617188 -4.785156 18.796875 -2.109375 C 17.972656 0.566406 16.9375 2.632812 15.6875 4.09375 C 14.445312 5.550781 13.03125 6.195312 11.4375 6.03125 C 9.851562 5.875 8.210938 4.5 6.515625 1.90625 Z M 9.859375 -0.3125 C 9.910156 -0.207031 10.039062 -0.0507812 10.25 0.15625 C 10.46875 0.375 10.679688 0.613281 10.890625 0.875 C 11.097656 1.132812 11.304688 1.359375 11.515625 1.546875 C 11.734375 1.734375 11.894531 1.851562 12 1.90625 C 13.644531 1.007812 14.847656 -0.203125 15.609375 -1.734375 C 16.378906 -3.273438 16.832031 -4.988281 16.96875 -6.875 C 17.101562 -8.757812 17.007812 -10.742188 16.6875 -12.828125 C 16.375 -14.921875 15.925781 -16.9375 15.34375 -18.875 C 14.757812 -20.8125 14.054688 -22.585938 13.234375 -24.203125 C 12.410156 -25.816406 11.65625 -27.15625 10.96875 -28.21875 C 10.914062 -27.632812 10.820312 -26.769531 10.6875 -25.625 C 10.550781 -24.488281 10.414062 -23.175781 10.28125 -21.6875 C 10.15625 -20.207031 10.015625 -18.660156 9.859375 -17.046875 C 9.703125 -15.429688 9.539062 -13.878906 9.375 -12.390625 C 9.21875 -10.910156 9.070312 -9.585938 8.9375 -8.421875 C 8.8125 -7.253906 8.71875 -6.40625 8.65625 -5.875 C 8.65625 -5.457031 8.679688 -4.96875 8.734375 -4.40625 C 8.796875 -3.851562 8.890625 -3.320312 9.015625 -2.8125 C 9.148438 -2.3125 9.296875 -1.835938 9.453125 -1.390625 C 9.617188 -0.941406 9.753906 -0.582031 9.859375 -0.3125 Z M 9.859375 -0.3125 "/></g></g></g><g fill="#004aad" fill-opacity="1"><g transform="translate(117.353166, 371.118083)"><g><path d="M 6.515625 1.90625 C 5.398438 0.375 4.738281 -1.367188 4.53125 -3.328125 C 4.320312 -5.296875 4.320312 -7.351562 4.53125 -9.5 C 4.738281 -11.644531 5.082031 -13.816406 5.5625 -16.015625 C 6.039062 -18.210938 6.460938 -20.332031 6.828125 -22.375 C 7.203125 -24.414062 7.398438 -26.320312 7.421875 -28.09375 C 7.453125 -29.875 7.148438 -31.398438 6.515625 -32.671875 C 6.203125 -33.359375 5.738281 -33.6875 5.125 -33.65625 C 4.519531 -33.632812 3.882812 -33.554688 3.21875 -33.421875 C 2.550781 -33.285156 1.898438 -33.226562 1.265625 -33.25 C 0.628906 -33.28125 0.046875 -33.695312 -0.484375 -34.5 C -0.421875 -34.65625 -0.257812 -34.863281 0 -35.125 C 0.257812 -35.394531 0.445312 -35.554688 0.5625 -35.609375 C 4.425781 -36.191406 7.65625 -35.804688 10.25 -34.453125 C 12.84375 -33.097656 14.921875 -31.1875 16.484375 -28.71875 C 18.054688 -26.257812 19.117188 -23.441406 19.671875 -20.265625 C 20.222656 -17.085938 20.421875 -13.9375 20.265625 -10.8125 C 20.109375 -7.6875 19.617188 -4.785156 18.796875 -2.109375 C 17.972656 0.566406 16.9375 2.632812 15.6875 4.09375 C 14.445312 5.550781 13.03125 6.195312 11.4375 6.03125 C 9.851562 5.875 8.210938 4.5 6.515625 1.90625 Z M 9.859375 -0.3125 C 9.910156 -0.207031 10.039062 -0.0507812 10.25 0.15625 C 10.46875 0.375 10.679688 0.613281 10.890625 0.875 C 11.097656 1.132812 11.304688 1.359375 11.515625 1.546875 C 11.734375 1.734375 11.894531 1.851562 12 1.90625 C 13.644531 1.007812 14.847656 -0.203125 15.609375 -1.734375 C 16.378906 -3.273438 16.832031 -4.988281 16.96875 -6.875 C 17.101562 -8.757812 17.007812 -10.742188 16.6875 -12.828125 C 16.375 -14.921875 15.925781 -16.9375 15.34375 -18.875 C 14.757812 -20.8125 14.054688 -22.585938 13.234375 -24.203125 C 12.410156 -25.816406 11.65625 -27.15625 10.96875 -28.21875 C 10.914062 -27.632812 10.820312 -26.769531 10.6875 -25.625 C 10.550781 -24.488281 10.414062 -23.175781 10.28125 -21.6875 C 10.15625 -20.207031 10.015625 -18.660156 9.859375 -17.046875 C 9.703125 -15.429688 9.539062 -13.878906 9.375 -12.390625 C 9.21875 -10.910156 9.070312 -9.585938 8.9375 -8.421875 C 8.8125 -7.253906 8.71875 -6.40625 8.65625 -5.875 C 8.65625 -5.457031 8.679688 -4.96875 8.734375 -4.40625 C 8.796875 -3.851562 8.890625 -3.320312 9.015625 -2.8125 C 9.148438 -2.3125 9.296875 -1.835938 9.453125 -1.390625 C 9.617188 -0.941406 9.753906 -0.582031 9.859375 -0.3125 Z M 9.859375 -0.3125 "/></g></g></g><g fill="#004aad" fill-opacity="1"><g transform="translate(139.528358, 371.118083)"><g><path d="M 5.796875 0.796875 C 5.847656 0.109375 6.019531 -0.882812 6.3125 -2.1875 C 6.601562 -3.488281 6.851562 -4.878906 7.0625 -6.359375 C 7.28125 -7.835938 7.414062 -9.316406 7.46875 -10.796875 C 7.519531 -12.285156 7.382812 -13.535156 7.0625 -14.546875 C 6.75 -15.554688 6.15625 -16.21875 5.28125 -16.53125 C 4.40625 -16.851562 3.125 -16.664062 1.4375 -15.96875 C 0.476562 -16.1875 -0.0625 -16.53125 -0.1875 -17 C -0.320312 -17.476562 -0.191406 -18.019531 0.203125 -18.625 C 0.597656 -19.238281 1.140625 -19.90625 1.828125 -20.625 C 2.515625 -21.34375 3.226562 -22.082031 3.96875 -22.84375 C 4.71875 -23.613281 5.378906 -24.359375 5.953125 -25.078125 C 6.535156 -25.796875 6.859375 -26.5 6.921875 -27.1875 C 6.859375 -27.5 6.785156 -28.238281 6.703125 -29.40625 C 6.628906 -30.570312 6.515625 -31.910156 6.359375 -33.421875 C 6.203125 -34.929688 6.03125 -36.546875 5.84375 -38.265625 C 5.65625 -39.992188 5.484375 -41.625 5.328125 -43.15625 C 5.171875 -44.695312 5.035156 -46.050781 4.921875 -47.21875 C 4.816406 -48.382812 4.738281 -49.148438 4.6875 -49.515625 C 4.6875 -50.097656 4.695312 -50.628906 4.71875 -51.109375 C 4.75 -51.585938 4.894531 -52 5.15625 -52.34375 C 5.425781 -52.6875 5.785156 -52.910156 6.234375 -53.015625 C 6.691406 -53.117188 7.289062 -53.039062 8.03125 -52.78125 C 8.238281 -51.1875 8.445312 -49.34375 8.65625 -47.25 C 8.875 -45.15625 9.113281 -43.019531 9.375 -40.84375 C 9.644531 -38.675781 9.9375 -36.503906 10.25 -34.328125 C 10.570312 -32.160156 10.941406 -30.125 11.359375 -28.21875 C 11.785156 -28.53125 12.300781 -29.097656 12.90625 -29.921875 C 13.519531 -30.742188 14.171875 -31.671875 14.859375 -32.703125 C 15.546875 -33.734375 16.273438 -34.753906 17.046875 -35.765625 C 17.816406 -36.773438 18.546875 -37.582031 19.234375 -38.1875 C 19.921875 -38.800781 20.554688 -39.160156 21.140625 -39.265625 C 21.722656 -39.367188 22.203125 -39.050781 22.578125 -38.3125 C 22.628906 -38.207031 22.65625 -38.019531 22.65625 -37.75 C 22.65625 -37.488281 22.628906 -37.28125 22.578125 -37.125 C 22.046875 -35.425781 21.171875 -33.847656 19.953125 -32.390625 C 18.734375 -30.929688 17.488281 -29.515625 16.21875 -28.140625 C 14.945312 -26.765625 13.832031 -25.359375 12.875 -23.921875 C 11.925781 -22.492188 11.421875 -20.957031 11.359375 -19.3125 C 11.734375 -19 12.316406 -18.414062 13.109375 -17.5625 L 18.671875 -12 C 19.734375 -10.9375 20.738281 -9.925781 21.6875 -8.96875 C 22.644531 -8.019531 23.46875 -7.175781 24.15625 -6.4375 L 25.90625 -4.765625 C 26.125 -4.554688 26.523438 -4.160156 27.109375 -3.578125 C 27.691406 -2.992188 28.191406 -2.359375 28.609375 -1.671875 C 29.035156 -0.984375 29.257812 -0.320312 29.28125 0.3125 C 29.3125 0.945312 28.929688 1.476562 28.140625 1.90625 C 28.035156 1.957031 27.847656 1.984375 27.578125 1.984375 C 27.316406 1.984375 27.132812 1.957031 27.03125 1.90625 C 24.851562 -0.789062 22.4375 -3.546875 19.78125 -6.359375 C 17.132812 -9.171875 14.328125 -11.609375 11.359375 -13.671875 C 11.304688 -13.296875 11.253906 -12.695312 11.203125 -11.875 C 11.148438 -11.0625 11.03125 -10.132812 10.84375 -9.09375 C 10.664062 -8.0625 10.507812 -6.976562 10.375 -5.84375 C 10.238281 -4.707031 10.09375 -3.632812 9.9375 -2.625 C 9.78125 -1.613281 9.632812 -0.703125 9.5 0.109375 C 9.363281 0.929688 9.242188 1.53125 9.140625 1.90625 C 9.085938 2.175781 8.96875 2.535156 8.78125 2.984375 C 8.59375 3.429688 8.335938 3.863281 8.015625 4.28125 C 7.703125 4.707031 7.359375 5.023438 6.984375 5.234375 C 6.617188 5.453125 6.222656 5.484375 5.796875 5.328125 C 5.796875 5.109375 5.78125 4.800781 5.75 4.40625 C 5.726562 4.007812 5.71875 3.570312 5.71875 3.09375 C 5.71875 2.625 5.726562 2.175781 5.75 1.75 C 5.78125 1.320312 5.796875 1.003906 5.796875 0.796875 Z M 5.796875 0.796875 "/></g></g></g><g fill="#004aad" fill-opacity="1"><g transform="translate(16.177144, 482.058873)"><g><path d="M 10.09375 4.21875 C 7.65625 3.207031 5.785156 1.894531 4.484375 0.28125 C 3.191406 -1.332031 2.304688 -3 1.828125 -4.71875 C 1.347656 -6.445312 1.203125 -8.128906 1.390625 -9.765625 C 1.578125 -11.410156 1.90625 -12.738281 2.375 -13.75 C 2.851562 -14.757812 3.394531 -15.316406 4 -15.421875 C 4.613281 -15.523438 5.132812 -14.941406 5.5625 -13.671875 C 5.082031 -11.023438 5.082031 -8.691406 5.5625 -6.671875 C 6.039062 -4.660156 6.820312 -2.992188 7.90625 -1.671875 C 8.988281 -0.347656 10.296875 0.613281 11.828125 1.21875 C 13.367188 1.832031 14.945312 2.148438 16.5625 2.171875 C 18.1875 2.203125 19.78125 1.910156 21.34375 1.296875 C 22.90625 0.691406 24.242188 -0.175781 25.359375 -1.3125 C 26.472656 -2.445312 27.289062 -3.875 27.8125 -5.59375 C 28.34375 -7.320312 28.398438 -9.273438 27.984375 -11.453125 C 27.710938 -12.453125 27.113281 -13.664062 26.1875 -15.09375 C 25.257812 -16.53125 24.210938 -18.054688 23.046875 -19.671875 C 21.878906 -21.285156 20.671875 -22.941406 19.421875 -24.640625 C 18.179688 -26.335938 17.148438 -27.96875 16.328125 -29.53125 C 15.515625 -31.09375 14.988281 -32.535156 14.75 -33.859375 C 14.507812 -35.179688 14.8125 -36.269531 15.65625 -37.125 C 16.34375 -37.707031 17.363281 -38.550781 18.71875 -39.65625 C 20.070312 -40.769531 21.53125 -41.894531 23.09375 -43.03125 C 24.65625 -44.175781 26.269531 -45.160156 27.9375 -45.984375 C 29.601562 -46.804688 31.128906 -47.21875 32.515625 -47.21875 C 33.460938 -47.21875 33.960938 -47.070312 34.015625 -46.78125 C 34.066406 -46.488281 33.84375 -46.085938 33.34375 -45.578125 C 32.84375 -45.078125 32.113281 -44.484375 31.15625 -43.796875 C 30.207031 -43.109375 29.160156 -42.378906 28.015625 -41.609375 C 26.878906 -40.835938 25.738281 -40 24.59375 -39.09375 C 23.457031 -38.195312 22.488281 -37.3125 21.6875 -36.4375 C 20.894531 -35.5625 20.328125 -34.703125 19.984375 -33.859375 C 19.640625 -33.015625 19.679688 -32.25 20.109375 -31.5625 C 21.648438 -29.382812 23.203125 -27.171875 24.765625 -24.921875 C 26.328125 -22.671875 27.675781 -20.457031 28.8125 -18.28125 C 29.945312 -16.101562 30.816406 -13.984375 31.421875 -11.921875 C 32.035156 -9.859375 32.128906 -7.867188 31.703125 -5.953125 C 31.285156 -4.046875 30.242188 -2.234375 28.578125 -0.515625 C 26.910156 1.203125 24.457031 2.78125 21.21875 4.21875 C 19.257812 5.007812 17.40625 5.390625 15.65625 5.359375 C 13.90625 5.335938 12.050781 4.957031 10.09375 4.21875 Z M 10.09375 4.21875 "/></g></g></g><g fill="#004aad" fill-opacity="1"><g transform="translate(51.943582, 482.058873)"><g><path d="M 6.75 3.015625 C 7.125 -1.535156 7.21875 -5.878906 7.03125 -10.015625 C 6.84375 -14.148438 6.484375 -18.28125 5.953125 -22.40625 C 5.429688 -26.539062 4.820312 -30.726562 4.125 -34.96875 C 3.4375 -39.207031 2.800781 -43.6875 2.21875 -48.40625 C 2.21875 -48.507812 2.21875 -48.71875 2.21875 -49.03125 C 2.21875 -49.351562 2.21875 -49.6875 2.21875 -50.03125 C 2.21875 -50.375 2.21875 -50.703125 2.21875 -51.015625 C 2.21875 -51.335938 2.21875 -51.554688 2.21875 -51.671875 L 4.53125 -51.671875 C 4.632812 -50.867188 4.816406 -49.660156 5.078125 -48.046875 C 5.347656 -46.429688 5.679688 -44.585938 6.078125 -42.515625 C 6.472656 -40.453125 6.867188 -38.28125 7.265625 -36 C 7.671875 -33.726562 8.054688 -31.570312 8.421875 -29.53125 C 8.796875 -27.488281 9.128906 -25.644531 9.421875 -24 C 9.710938 -22.363281 9.9375 -21.171875 10.09375 -20.421875 C 10.09375 -20.265625 10.144531 -20.023438 10.25 -19.703125 C 10.351562 -19.390625 10.457031 -19.0625 10.5625 -18.71875 C 10.675781 -18.375 10.796875 -18.039062 10.921875 -17.71875 C 11.054688 -17.40625 11.148438 -17.171875 11.203125 -17.015625 C 11.304688 -17.378906 11.554688 -17.984375 11.953125 -18.828125 C 12.359375 -19.679688 12.796875 -20.582031 13.265625 -21.53125 C 13.742188 -22.488281 14.207031 -23.378906 14.65625 -24.203125 C 15.113281 -25.023438 15.445312 -25.617188 15.65625 -25.984375 C 16.34375 -27.203125 17.21875 -28.34375 18.28125 -29.40625 C 19.34375 -30.46875 20.390625 -31.117188 21.421875 -31.359375 C 22.453125 -31.597656 23.378906 -31.34375 24.203125 -30.59375 C 25.023438 -29.851562 25.515625 -28.316406 25.671875 -25.984375 C 25.722656 -25.460938 25.785156 -24.617188 25.859375 -23.453125 C 25.941406 -22.285156 26.007812 -20.957031 26.0625 -19.46875 C 26.125 -17.988281 26.207031 -16.441406 26.3125 -14.828125 C 26.414062 -13.210938 26.503906 -11.660156 26.578125 -10.171875 C 26.660156 -8.691406 26.726562 -7.378906 26.78125 -6.234375 C 26.832031 -5.097656 26.859375 -4.238281 26.859375 -3.65625 C 27.335938 -3.070312 27.695312 -2.378906 27.9375 -1.578125 C 28.175781 -0.785156 28.191406 0.00390625 27.984375 0.796875 C 27.128906 1.054688 26.382812 1.023438 25.75 0.703125 C 25.113281 0.390625 24.582031 -0.0820312 24.15625 -0.71875 C 23.738281 -1.351562 23.382812 -2.050781 23.09375 -2.8125 C 22.800781 -3.582031 22.546875 -4.234375 22.328125 -4.765625 C 22.441406 -6.410156 22.507812 -8.1875 22.53125 -10.09375 C 22.5625 -12 22.550781 -13.929688 22.5 -15.890625 C 22.445312 -17.859375 22.328125 -19.804688 22.140625 -21.734375 C 21.953125 -23.671875 21.644531 -25.488281 21.21875 -27.1875 C 20.476562 -27.550781 19.773438 -27.390625 19.109375 -26.703125 C 18.453125 -26.015625 17.832031 -24.96875 17.25 -23.5625 C 16.664062 -22.15625 16.109375 -20.507812 15.578125 -18.625 C 15.046875 -16.75 14.539062 -14.78125 14.0625 -12.71875 C 13.59375 -10.65625 13.128906 -8.585938 12.671875 -6.515625 C 12.222656 -4.453125 11.800781 -2.570312 11.40625 -0.875 C 11.007812 0.820312 10.613281 2.210938 10.21875 3.296875 C 9.820312 4.378906 9.410156 5.054688 8.984375 5.328125 Z M 6.75 3.015625 "/></g></g></g><g fill="#004aad" fill-opacity="1"><g transform="translate(82.146354, 482.058873)"><g><path d="M 2.78125 4.21875 C 1.9375 2.414062 1.472656 0.585938 1.390625 -1.265625 C 1.304688 -3.117188 1.398438 -5.003906 1.671875 -6.921875 C 1.722656 -7.554688 1.828125 -8.46875 1.984375 -9.65625 C 2.140625 -10.851562 2.320312 -12.175781 2.53125 -13.625 C 2.75 -15.082031 2.988281 -16.632812 3.25 -18.28125 C 3.519531 -19.925781 3.757812 -21.472656 3.96875 -22.921875 C 4.1875 -24.378906 4.382812 -25.664062 4.5625 -26.78125 C 4.75 -27.894531 4.894531 -28.742188 5 -29.328125 C 5.320312 -31.128906 5.691406 -32.664062 6.109375 -33.9375 C 6.535156 -35.207031 7.109375 -36.1875 7.828125 -36.875 C 8.546875 -37.570312 9.472656 -37.945312 10.609375 -38 C 11.742188 -38.050781 13.210938 -37.757812 15.015625 -37.125 C 15.234375 -37.070312 15.472656 -36.898438 15.734375 -36.609375 C 16.003906 -36.316406 16.140625 -36.144531 16.140625 -36.09375 C 16.242188 -35.507812 16.414062 -34.632812 16.65625 -33.46875 C 16.894531 -32.300781 17.160156 -30.972656 17.453125 -29.484375 C 17.742188 -28.003906 18.0625 -26.46875 18.40625 -24.875 C 18.75 -23.289062 19.050781 -21.753906 19.3125 -20.265625 C 19.582031 -18.785156 19.832031 -17.460938 20.0625 -16.296875 C 20.300781 -15.128906 20.503906 -14.253906 20.671875 -13.671875 C 21.304688 -10.648438 22.097656 -8.539062 23.046875 -7.34375 C 24.003906 -6.15625 25.007812 -5.535156 26.0625 -5.484375 C 27.125 -5.429688 28.238281 -5.785156 29.40625 -6.546875 C 30.570312 -7.316406 31.695312 -8.125 32.78125 -8.96875 C 33.875 -9.820312 34.921875 -10.539062 35.921875 -11.125 C 36.929688 -11.707031 37.78125 -11.816406 38.46875 -11.453125 C 38.46875 -10.648438 38.28125 -9.863281 37.90625 -9.09375 C 37.539062 -8.332031 37.078125 -7.617188 36.515625 -6.953125 C 35.960938 -6.296875 35.367188 -5.675781 34.734375 -5.09375 C 34.097656 -4.507812 33.515625 -4.03125 32.984375 -3.65625 C 30.546875 -2.0625 28.53125 -1.222656 26.9375 -1.140625 C 25.351562 -1.066406 23.988281 -1.425781 22.84375 -2.21875 C 21.707031 -3.019531 20.796875 -4.132812 20.109375 -5.5625 C 19.421875 -6.988281 18.820312 -8.429688 18.3125 -9.890625 C 17.8125 -11.347656 17.3125 -12.644531 16.8125 -13.78125 C 16.3125 -14.925781 15.710938 -15.65625 15.015625 -15.96875 C 14.859375 -15.394531 14.582031 -14.429688 14.1875 -13.078125 C 13.789062 -11.722656 13.351562 -10.265625 12.875 -8.703125 C 12.394531 -7.140625 11.941406 -5.664062 11.515625 -4.28125 C 11.097656 -2.90625 10.785156 -1.957031 10.578125 -1.4375 C 10.515625 -1.21875 10.351562 -0.800781 10.09375 -0.1875 C 9.832031 0.414062 9.472656 1.070312 9.015625 1.78125 C 8.566406 2.5 8.078125 3.1875 7.546875 3.84375 C 7.015625 4.507812 6.472656 5.03125 5.921875 5.40625 C 5.367188 5.78125 4.8125 5.898438 4.25 5.765625 C 3.695312 5.628906 3.207031 5.113281 2.78125 4.21875 Z M 6.125 -14.78125 C 6.070312 -14.25 6.03125 -13.296875 6 -11.921875 C 5.976562 -10.546875 5.96875 -9.101562 5.96875 -7.59375 C 5.96875 -6.082031 5.976562 -4.625 6 -3.21875 C 6.03125 -1.8125 6.070312 -0.84375 6.125 -0.3125 C 7.601562 -2.59375 8.9375 -5.242188 10.125 -8.265625 C 11.320312 -11.285156 12.238281 -14.425781 12.875 -17.6875 C 13.507812 -20.945312 13.757812 -24.164062 13.625 -27.34375 C 13.5 -30.519531 12.878906 -33.4375 11.765625 -36.09375 C 10.972656 -34.707031 10.253906 -33.007812 9.609375 -31 C 8.972656 -28.988281 8.429688 -26.945312 7.984375 -24.875 C 7.535156 -22.8125 7.140625 -20.851562 6.796875 -19 C 6.453125 -17.144531 6.226562 -15.738281 6.125 -14.78125 Z M 6.125 -14.78125 "/></g></g></g><g fill="#004aad" fill-opacity="1"><g transform="translate(114.733545, 482.058873)"><g><path d="M 6.359375 4.609375 C 5.722656 6.035156 5.164062 6.757812 4.6875 6.78125 C 4.207031 6.8125 3.796875 6.335938 3.453125 5.359375 C 3.109375 4.378906 2.84375 3 2.65625 1.21875 C 2.476562 -0.550781 2.359375 -2.507812 2.296875 -4.65625 C 2.242188 -6.800781 2.234375 -9.050781 2.265625 -11.40625 C 2.296875 -13.757812 2.363281 -16.019531 2.46875 -18.1875 C 2.570312 -20.363281 2.710938 -22.363281 2.890625 -24.1875 C 3.078125 -26.019531 3.265625 -27.46875 3.453125 -28.53125 C 3.640625 -29.59375 3.835938 -30.175781 4.046875 -30.28125 C 4.265625 -30.382812 4.476562 -29.773438 4.6875 -28.453125 C 6.0625 -29.515625 7.546875 -30.507812 9.140625 -31.4375 C 10.734375 -32.363281 12.375 -33.144531 14.0625 -33.78125 C 15.757812 -34.414062 17.484375 -34.8125 19.234375 -34.96875 C 20.984375 -35.132812 22.65625 -34.976562 24.25 -34.5 C 24.457031 -33.914062 24.476562 -33.265625 24.3125 -32.546875 C 24.15625 -31.828125 23.757812 -31.363281 23.125 -31.15625 C 22.4375 -31.257812 21.535156 -31.3125 20.421875 -31.3125 C 19.316406 -31.3125 18.140625 -31.234375 16.890625 -31.078125 C 15.640625 -30.921875 14.378906 -30.65625 13.109375 -30.28125 C 11.835938 -29.914062 10.710938 -29.410156 9.734375 -28.765625 C 8.753906 -28.128906 7.945312 -27.375 7.3125 -26.5 C 6.675781 -25.632812 6.359375 -24.5625 6.359375 -23.28125 Z M 6.359375 4.609375 "/></g></g></g><g fill="#004aad" fill-opacity="1"><g transform="translate(141.916037, 482.058873)"><g><path d="M 13.359375 4.21875 C 11.554688 2.78125 10.132812 1.109375 9.09375 -0.796875 C 8.0625 -2.703125 7.28125 -4.742188 6.75 -6.921875 C 6.4375 -6.703125 6.023438 -6.472656 5.515625 -6.234375 C 5.015625 -5.992188 4.5 -5.78125 3.96875 -5.59375 C 3.4375 -5.414062 2.90625 -5.300781 2.375 -5.25 C 1.851562 -5.195312 1.484375 -5.25 1.265625 -5.40625 C 1.054688 -5.5625 0.988281 -5.835938 1.0625 -6.234375 C 1.144531 -6.628906 1.53125 -7.253906 2.21875 -8.109375 C 2.332031 -8.210938 2.613281 -8.488281 3.0625 -8.9375 C 3.507812 -9.394531 4 -9.875 4.53125 -10.375 C 5.0625 -10.875 5.535156 -11.335938 5.953125 -11.765625 C 6.378906 -12.191406 6.644531 -12.457031 6.75 -12.5625 C 7.175781 -13.675781 7.441406 -14.878906 7.546875 -16.171875 C 7.648438 -17.472656 7.71875 -18.8125 7.75 -20.1875 C 7.78125 -21.5625 7.859375 -22.9375 7.984375 -24.3125 C 8.117188 -25.695312 8.453125 -27 8.984375 -28.21875 C 9.242188 -28.851562 9.785156 -29.6875 10.609375 -30.71875 C 11.429688 -31.75 12.382812 -32.726562 13.46875 -33.65625 C 14.5625 -34.582031 15.632812 -35.429688 16.6875 -36.203125 C 17.75 -36.972656 18.691406 -37.4375 19.515625 -37.59375 C 20.335938 -37.75 20.929688 -37.550781 21.296875 -37 C 21.671875 -36.445312 21.644531 -35.375 21.21875 -33.78125 C 20.738281 -31.925781 20.019531 -30.097656 19.0625 -28.296875 C 18.113281 -26.492188 17.125 -24.726562 16.09375 -23 C 15.0625 -21.28125 14.09375 -19.5625 13.1875 -17.84375 C 12.289062 -16.125 11.628906 -14.363281 11.203125 -12.5625 C 10.992188 -11.601562 10.890625 -10.460938 10.890625 -9.140625 C 10.890625 -7.816406 11.046875 -6.488281 11.359375 -5.15625 C 11.679688 -3.832031 12.171875 -2.613281 12.828125 -1.5 C 13.492188 -0.394531 14.4375 0.367188 15.65625 0.796875 C 16.976562 1.328125 18.34375 1.457031 19.75 1.1875 C 21.15625 0.925781 22.503906 0.425781 23.796875 -0.3125 C 25.097656 -1.0625 26.34375 -1.976562 27.53125 -3.0625 C 28.726562 -4.144531 29.859375 -5.269531 30.921875 -6.4375 C 31.984375 -7.601562 32.910156 -8.726562 33.703125 -9.8125 C 34.492188 -10.90625 35.15625 -11.820312 35.6875 -12.5625 L 36.875 -11.453125 C 37.144531 -11.234375 36.945312 -10.515625 36.28125 -9.296875 C 35.625 -8.078125 34.65625 -6.695312 33.375 -5.15625 C 32.101562 -3.625 30.609375 -2.078125 28.890625 -0.515625 C 27.171875 1.046875 25.410156 2.367188 23.609375 3.453125 C 21.804688 4.546875 20.003906 5.222656 18.203125 5.484375 C 16.398438 5.742188 14.785156 5.320312 13.359375 4.21875 Z M 11.203125 -23.84375 C 11.148438 -23.582031 11.125 -23.1875 11.125 -22.65625 C 11.125 -22.125 11.125 -21.566406 11.125 -20.984375 C 11.125 -20.398438 11.125 -19.84375 11.125 -19.3125 C 11.125 -18.78125 11.148438 -18.410156 11.203125 -18.203125 C 12.585938 -20.585938 13.875 -23.101562 15.0625 -25.75 C 16.25 -28.40625 17.191406 -31.082031 17.890625 -33.78125 C 16.878906 -33.457031 15.972656 -32.9375 15.171875 -32.21875 C 14.378906 -31.507812 13.71875 -30.691406 13.1875 -29.765625 C 12.664062 -28.835938 12.226562 -27.859375 11.875 -26.828125 C 11.53125 -25.796875 11.304688 -24.800781 11.203125 -23.84375 Z M 11.203125 -23.84375 "/></g></g></g><g fill="#004aad" fill-opacity="1"><g transform="translate(175.701384, 482.058873)"><g/></g></g><g fill="#004aad" fill-opacity="1"><g transform="translate(4.593483, 589.251664)"><g><path d="M 8.640625 4.046875 C 6.910156 3.390625 5.519531 2.207031 4.46875 0.5 C 3.425781 -1.207031 2.675781 -3.207031 2.21875 -5.5 C 1.757812 -7.800781 1.59375 -10.289062 1.71875 -12.96875 C 1.84375 -15.644531 2.210938 -18.332031 2.828125 -21.03125 C 3.441406 -23.738281 4.257812 -26.300781 5.28125 -28.71875 C 6.300781 -31.144531 7.507812 -33.257812 8.90625 -35.0625 C 10.3125 -36.875 11.894531 -38.238281 13.65625 -39.15625 C 15.414062 -40.070312 17.3125 -40.378906 19.34375 -40.078125 C 19.445312 -39.671875 19.597656 -38.957031 19.796875 -37.9375 C 20.003906 -36.914062 20.222656 -35.832031 20.453125 -34.6875 C 20.679688 -33.539062 20.882812 -32.457031 21.0625 -31.4375 C 21.25 -30.414062 21.390625 -29.703125 21.484375 -29.296875 C 21.585938 -28.835938 21.445312 -28.335938 21.0625 -27.796875 C 20.6875 -27.265625 20.242188 -26.832031 19.734375 -26.5 C 19.222656 -26.164062 18.722656 -26.007812 18.234375 -26.03125 C 17.753906 -26.0625 17.410156 -26.4375 17.203125 -27.15625 C 17.054688 -27.5625 16.957031 -28.144531 16.90625 -28.90625 C 16.851562 -29.675781 16.75 -30.503906 16.59375 -31.390625 C 16.445312 -32.285156 16.269531 -33.101562 16.0625 -33.84375 C 15.851562 -34.582031 15.570312 -35.128906 15.21875 -35.484375 C 14.863281 -35.847656 14.40625 -35.910156 13.84375 -35.671875 C 13.28125 -35.441406 12.617188 -34.742188 11.859375 -33.578125 C 11.546875 -33.273438 11.222656 -32.84375 10.890625 -32.28125 C 10.566406 -31.71875 10.222656 -31.15625 9.859375 -30.59375 C 9.503906 -30.03125 9.210938 -29.519531 8.984375 -29.0625 C 8.753906 -28.601562 8.640625 -28.320312 8.640625 -28.21875 L 5.359375 -11.015625 C 4.992188 -9.128906 5.015625 -7.429688 5.421875 -5.921875 C 5.835938 -4.421875 6.503906 -3.132812 7.421875 -2.0625 C 8.335938 -0.988281 9.457031 -0.160156 10.78125 0.421875 C 12.101562 1.003906 13.488281 1.332031 14.9375 1.40625 C 16.394531 1.488281 17.890625 1.3125 19.421875 0.875 C 20.953125 0.445312 22.378906 -0.300781 23.703125 -1.375 C 24.210938 -1.726562 24.863281 -2.425781 25.65625 -3.46875 C 26.445312 -4.519531 27.285156 -5.679688 28.171875 -6.953125 C 29.066406 -8.234375 30.007812 -9.585938 31 -11.015625 C 32 -12.441406 32.929688 -13.726562 33.796875 -14.875 C 34.671875 -16.019531 35.4375 -16.945312 36.09375 -17.65625 C 36.757812 -18.375 37.242188 -18.679688 37.546875 -18.578125 C 38.210938 -16.742188 38.203125 -14.820312 37.515625 -12.8125 C 36.828125 -10.800781 35.71875 -8.828125 34.1875 -6.890625 C 32.65625 -4.953125 30.789062 -3.148438 28.59375 -1.484375 C 26.40625 0.171875 24.140625 1.519531 21.796875 2.5625 C 19.453125 3.601562 17.128906 4.300781 14.828125 4.65625 C 12.535156 5.019531 10.472656 4.816406 8.640625 4.046875 Z M 8.640625 4.046875 "/></g></g></g><g fill="#004aad" fill-opacity="1"><g transform="translate(43.905536, 589.251664)"><g><path d="M 6.265625 1.828125 C 5.203125 0.359375 4.566406 -1.316406 4.359375 -3.203125 C 4.148438 -5.097656 4.148438 -7.078125 4.359375 -9.140625 C 4.566406 -11.203125 4.898438 -13.289062 5.359375 -15.40625 C 5.816406 -17.519531 6.222656 -19.554688 6.578125 -21.515625 C 6.929688 -23.484375 7.117188 -25.320312 7.140625 -27.03125 C 7.171875 -28.738281 6.878906 -30.207031 6.265625 -31.4375 C 5.960938 -32.09375 5.515625 -32.410156 4.921875 -32.390625 C 4.335938 -32.367188 3.726562 -32.289062 3.09375 -32.15625 C 2.457031 -32.03125 1.832031 -31.976562 1.21875 -32 C 0.613281 -32.03125 0.0546875 -32.425781 -0.453125 -33.1875 C -0.398438 -33.34375 -0.25 -33.546875 0 -33.796875 C 0.25 -34.054688 0.425781 -34.210938 0.53125 -34.265625 C 4.257812 -34.828125 7.367188 -34.457031 9.859375 -33.15625 C 12.359375 -31.851562 14.359375 -30.015625 15.859375 -27.640625 C 17.367188 -25.273438 18.390625 -22.5625 18.921875 -19.5 C 19.460938 -16.445312 19.65625 -13.414062 19.5 -10.40625 C 19.351562 -7.394531 18.882812 -4.601562 18.09375 -2.03125 C 17.300781 0.539062 16.304688 2.53125 15.109375 3.9375 C 13.910156 5.34375 12.546875 5.96875 11.015625 5.8125 C 9.484375 5.65625 7.898438 4.328125 6.265625 1.828125 Z M 9.484375 -0.3125 C 9.535156 -0.207031 9.660156 -0.0546875 9.859375 0.140625 C 10.066406 0.347656 10.269531 0.578125 10.46875 0.828125 C 10.675781 1.085938 10.878906 1.304688 11.078125 1.484375 C 11.285156 1.671875 11.441406 1.785156 11.546875 1.828125 C 13.128906 0.960938 14.289062 -0.207031 15.03125 -1.6875 C 15.769531 -3.164062 16.203125 -4.804688 16.328125 -6.609375 C 16.453125 -8.421875 16.363281 -10.332031 16.0625 -12.34375 C 15.757812 -14.363281 15.328125 -16.300781 14.765625 -18.15625 C 14.203125 -20.019531 13.523438 -21.726562 12.734375 -23.28125 C 11.941406 -24.84375 11.21875 -26.132812 10.5625 -27.15625 C 10.507812 -26.59375 10.414062 -25.757812 10.28125 -24.65625 C 10.15625 -23.5625 10.03125 -22.300781 9.90625 -20.875 C 9.78125 -19.445312 9.640625 -17.957031 9.484375 -16.40625 C 9.328125 -14.851562 9.171875 -13.363281 9.015625 -11.9375 C 8.867188 -10.507812 8.726562 -9.234375 8.59375 -8.109375 C 8.46875 -6.984375 8.382812 -6.164062 8.34375 -5.65625 C 8.34375 -5.25 8.363281 -4.773438 8.40625 -4.234375 C 8.457031 -3.703125 8.546875 -3.191406 8.671875 -2.703125 C 8.804688 -2.222656 8.945312 -1.765625 9.09375 -1.328125 C 9.25 -0.898438 9.378906 -0.5625 9.484375 -0.3125 Z M 9.484375 -0.3125 "/></g></g></g><g fill="#004aad" fill-opacity="1"><g transform="translate(65.244189, 589.251664)"><g><path d="M 4.359375 4.046875 C 4.410156 3.492188 4.4375 2.550781 4.4375 1.21875 L 4.4375 -7.1875 C 4.4375 -8.507812 4.410156 -9.453125 4.359375 -10.015625 C 4.304688 -10.222656 4.226562 -10.734375 4.125 -11.546875 C 4.03125 -12.359375 3.90625 -13.335938 3.75 -14.484375 C 3.59375 -15.640625 3.4375 -16.828125 3.28125 -18.046875 C 3.132812 -19.273438 2.972656 -20.4375 2.796875 -21.53125 C 2.617188 -22.625 2.476562 -23.59375 2.375 -24.4375 C 2.269531 -25.28125 2.191406 -25.851562 2.140625 -26.15625 C 2.085938 -26.71875 2.070312 -27.300781 2.09375 -27.90625 C 2.125 -28.519531 2.238281 -29.054688 2.4375 -29.515625 C 2.644531 -29.984375 2.960938 -30.304688 3.390625 -30.484375 C 3.828125 -30.660156 4.484375 -30.617188 5.359375 -30.359375 C 5.410156 -29.492188 5.5 -28.472656 5.625 -27.296875 C 5.75 -26.128906 5.882812 -24.90625 6.03125 -23.625 C 6.1875 -22.351562 6.390625 -21.09375 6.640625 -19.84375 C 6.898438 -18.59375 7.210938 -17.4375 7.578125 -16.375 C 8.085938 -17.945312 8.609375 -19.316406 9.140625 -20.484375 C 9.671875 -21.660156 10.269531 -22.734375 10.9375 -23.703125 C 11.601562 -24.671875 12.34375 -25.613281 13.15625 -26.53125 C 13.96875 -27.457031 14.960938 -28.378906 16.140625 -29.296875 C 17.566406 -30.515625 18.765625 -31.007812 19.734375 -30.78125 C 20.703125 -30.550781 21.503906 -29.835938 22.140625 -28.640625 C 22.773438 -27.441406 23.3125 -25.910156 23.75 -24.046875 C 24.1875 -22.191406 24.554688 -20.21875 24.859375 -18.125 C 25.160156 -16.03125 25.488281 -13.988281 25.84375 -12 C 26.207031 -10.019531 26.65625 -8.289062 27.1875 -6.8125 C 27.726562 -5.332031 28.40625 -4.257812 29.21875 -3.59375 C 30.03125 -2.925781 31.050781 -2.898438 32.28125 -3.515625 C 32.632812 -2.390625 32.679688 -1.570312 32.421875 -1.0625 C 32.171875 -0.5625 31.710938 -0.285156 31.046875 -0.234375 C 30.390625 -0.179688 29.640625 -0.34375 28.796875 -0.71875 C 27.953125 -1.101562 27.109375 -1.625 26.265625 -2.28125 C 25.429688 -2.945312 24.679688 -3.765625 24.015625 -4.734375 C 23.347656 -5.703125 22.863281 -6.722656 22.5625 -7.796875 C 22.457031 -8.515625 22.328125 -9.726562 22.171875 -11.4375 C 22.023438 -13.144531 21.835938 -14.96875 21.609375 -16.90625 C 21.378906 -18.84375 20.992188 -20.753906 20.453125 -22.640625 C 19.921875 -24.523438 19.195312 -26.03125 18.28125 -27.15625 L 13.921875 -22.953125 C 13.816406 -22.742188 13.519531 -21.988281 13.03125 -20.6875 C 12.550781 -19.382812 12.03125 -17.863281 11.46875 -16.125 C 10.90625 -14.394531 10.34375 -12.648438 9.78125 -10.890625 C 9.226562 -9.140625 8.847656 -7.726562 8.640625 -6.65625 C 8.535156 -6.300781 8.421875 -5.625 8.296875 -4.625 C 8.171875 -3.632812 8.039062 -2.550781 7.90625 -1.375 C 7.78125 -0.207031 7.691406 0.882812 7.640625 1.90625 C 7.597656 2.925781 7.578125 3.640625 7.578125 4.046875 C 7.210938 4.816406 6.671875 5.203125 5.953125 5.203125 C 5.242188 5.203125 4.710938 4.816406 4.359375 4.046875 Z M 4.359375 4.046875 "/></g></g></g><g fill="#004aad" fill-opacity="1"><g transform="translate(96.60206, 589.251664)"><g><path d="M 4.359375 4.046875 C 4.410156 3.492188 4.4375 2.550781 4.4375 1.21875 L 4.4375 -7.1875 C 4.4375 -8.507812 4.410156 -9.453125 4.359375 -10.015625 C 4.304688 -10.222656 4.226562 -10.734375 4.125 -11.546875 C 4.03125 -12.359375 3.90625 -13.335938 3.75 -14.484375 C 3.59375 -15.640625 3.4375 -16.828125 3.28125 -18.046875 C 3.132812 -19.273438 2.972656 -20.4375 2.796875 -21.53125 C 2.617188 -22.625 2.476562 -23.59375 2.375 -24.4375 C 2.269531 -25.28125 2.191406 -25.851562 2.140625 -26.15625 C 2.085938 -26.71875 2.070312 -27.300781 2.09375 -27.90625 C 2.125 -28.519531 2.238281 -29.054688 2.4375 -29.515625 C 2.644531 -29.984375 2.960938 -30.304688 3.390625 -30.484375 C 3.828125 -30.660156 4.484375 -30.617188 5.359375 -30.359375 C 5.410156 -29.492188 5.5 -28.472656 5.625 -27.296875 C 5.75 -26.128906 5.882812 -24.90625 6.03125 -23.625 C 6.1875 -22.351562 6.390625 -21.09375 6.640625 -19.84375 C 6.898438 -18.59375 7.210938 -17.4375 7.578125 -16.375 C 8.085938 -17.945312 8.609375 -19.316406 9.140625 -20.484375 C 9.671875 -21.660156 10.269531 -22.734375 10.9375 -23.703125 C 11.601562 -24.671875 12.34375 -25.613281 13.15625 -26.53125 C 13.96875 -27.457031 14.960938 -28.378906 16.140625 -29.296875 C 17.566406 -30.515625 18.765625 -31.007812 19.734375 -30.78125 C 20.703125 -30.550781 21.503906 -29.835938 22.140625 -28.640625 C 22.773438 -27.441406 23.3125 -25.910156 23.75 -24.046875 C 24.1875 -22.191406 24.554688 -20.21875 24.859375 -18.125 C 25.160156 -16.03125 25.488281 -13.988281 25.84375 -12 C 26.207031 -10.019531 26.65625 -8.289062 27.1875 -6.8125 C 27.726562 -5.332031 28.40625 -4.257812 29.21875 -3.59375 C 30.03125 -2.925781 31.050781 -2.898438 32.28125 -3.515625 C 32.632812 -2.390625 32.679688 -1.570312 32.421875 -1.0625 C 32.171875 -0.5625 31.710938 -0.285156 31.046875 -0.234375 C 30.390625 -0.179688 29.640625 -0.34375 28.796875 -0.71875 C 27.953125 -1.101562 27.109375 -1.625 26.265625 -2.28125 C 25.429688 -2.945312 24.679688 -3.765625 24.015625 -4.734375 C 23.347656 -5.703125 22.863281 -6.722656 22.5625 -7.796875 C 22.457031 -8.515625 22.328125 -9.726562 22.171875 -11.4375 C 22.023438 -13.144531 21.835938 -14.96875 21.609375 -16.90625 C 21.378906 -18.84375 20.992188 -20.753906 20.453125 -22.640625 C 19.921875 -24.523438 19.195312 -26.03125 18.28125 -27.15625 L 13.921875 -22.953125 C 13.816406 -22.742188 13.519531 -21.988281 13.03125 -20.6875 C 12.550781 -19.382812 12.03125 -17.863281 11.46875 -16.125 C 10.90625 -14.394531 10.34375 -12.648438 9.78125 -10.890625 C 9.226562 -9.140625 8.847656 -7.726562 8.640625 -6.65625 C 8.535156 -6.300781 8.421875 -5.625 8.296875 -4.625 C 8.171875 -3.632812 8.039062 -2.550781 7.90625 -1.375 C 7.78125 -0.207031 7.691406 0.882812 7.640625 1.90625 C 7.597656 2.925781 7.578125 3.640625 7.578125 4.046875 C 7.210938 4.816406 6.671875 5.203125 5.953125 5.203125 C 5.242188 5.203125 4.710938 4.816406 4.359375 4.046875 Z M 4.359375 4.046875 "/></g></g></g><g fill="#004aad" fill-opacity="1"><g transform="translate(127.95993, 589.251664)"><g><path d="M 12.84375 4.046875 C 11.113281 2.671875 9.75 1.066406 8.75 -0.765625 C 7.757812 -2.597656 7.007812 -4.5625 6.5 -6.65625 C 6.195312 -6.445312 5.800781 -6.226562 5.3125 -6 C 4.832031 -5.769531 4.335938 -5.566406 3.828125 -5.390625 C 3.316406 -5.210938 2.804688 -5.097656 2.296875 -5.046875 C 1.785156 -4.992188 1.425781 -5.046875 1.21875 -5.203125 C 1.019531 -5.359375 0.957031 -5.625 1.03125 -6 C 1.101562 -6.382812 1.472656 -6.984375 2.140625 -7.796875 C 2.242188 -7.898438 2.507812 -8.164062 2.9375 -8.59375 C 3.375 -9.03125 3.847656 -9.488281 4.359375 -9.96875 C 4.867188 -10.457031 5.328125 -10.90625 5.734375 -11.3125 C 6.140625 -11.726562 6.394531 -11.984375 6.5 -12.078125 C 6.90625 -13.148438 7.160156 -14.3125 7.265625 -15.5625 C 7.367188 -16.8125 7.429688 -18.097656 7.453125 -19.421875 C 7.484375 -20.753906 7.5625 -22.082031 7.6875 -23.40625 C 7.8125 -24.726562 8.128906 -25.976562 8.640625 -27.15625 C 8.898438 -27.757812 9.421875 -28.554688 10.203125 -29.546875 C 10.992188 -30.546875 11.910156 -31.492188 12.953125 -32.390625 C 14.003906 -33.285156 15.039062 -34.101562 16.0625 -34.84375 C 17.082031 -35.582031 17.988281 -36.023438 18.78125 -36.171875 C 19.570312 -36.328125 20.144531 -36.132812 20.5 -35.59375 C 20.851562 -35.0625 20.828125 -34.03125 20.421875 -32.5 C 19.960938 -30.71875 19.273438 -28.957031 18.359375 -27.21875 C 17.441406 -25.488281 16.484375 -23.796875 15.484375 -22.140625 C 14.492188 -20.484375 13.5625 -18.828125 12.6875 -17.171875 C 11.820312 -15.515625 11.1875 -13.816406 10.78125 -12.078125 C 10.582031 -11.160156 10.484375 -10.066406 10.484375 -8.796875 C 10.484375 -7.523438 10.632812 -6.25 10.9375 -4.96875 C 11.238281 -3.695312 11.707031 -2.523438 12.34375 -1.453125 C 12.988281 -0.378906 13.894531 0.359375 15.0625 0.765625 C 16.34375 1.273438 17.65625 1.398438 19 1.140625 C 20.351562 0.890625 21.65625 0.410156 22.90625 -0.296875 C 24.15625 -1.015625 25.351562 -1.894531 26.5 -2.9375 C 27.644531 -3.988281 28.726562 -5.070312 29.75 -6.1875 C 30.769531 -7.3125 31.660156 -8.394531 32.421875 -9.4375 C 33.191406 -10.488281 33.832031 -11.367188 34.34375 -12.078125 L 35.484375 -11.015625 C 35.742188 -10.804688 35.550781 -10.113281 34.90625 -8.9375 C 34.269531 -7.769531 33.335938 -6.445312 32.109375 -4.96875 C 30.890625 -3.488281 29.453125 -1.992188 27.796875 -0.484375 C 26.140625 1.015625 24.441406 2.285156 22.703125 3.328125 C 20.972656 4.367188 19.242188 5.015625 17.515625 5.265625 C 15.785156 5.523438 14.226562 5.117188 12.84375 4.046875 Z M 10.78125 -22.953125 C 10.726562 -22.691406 10.703125 -22.304688 10.703125 -21.796875 C 10.703125 -21.285156 10.703125 -20.75 10.703125 -20.1875 C 10.703125 -19.625 10.703125 -19.085938 10.703125 -18.578125 C 10.703125 -18.078125 10.726562 -17.722656 10.78125 -17.515625 C 12.101562 -19.804688 13.335938 -22.226562 14.484375 -24.78125 C 15.640625 -27.332031 16.546875 -29.90625 17.203125 -32.5 C 16.234375 -32.195312 15.367188 -31.703125 14.609375 -31.015625 C 13.847656 -30.328125 13.210938 -29.535156 12.703125 -28.640625 C 12.191406 -27.753906 11.769531 -26.8125 11.4375 -25.8125 C 11.101562 -24.820312 10.882812 -23.867188 10.78125 -22.953125 Z M 10.78125 -22.953125 "/></g></g></g><g fill="#004aad" fill-opacity="1"><g transform="translate(160.465032, 589.251664)"><g><path d="M 5.359375 2.90625 C 3.878906 1.726562 2.796875 0.328125 2.109375 -1.296875 C 1.421875 -2.929688 1.050781 -4.691406 1 -6.578125 C 0.945312 -8.460938 1.148438 -10.425781 1.609375 -12.46875 C 2.066406 -14.507812 2.675781 -16.472656 3.4375 -18.359375 C 4.207031 -20.242188 5.085938 -22.015625 6.078125 -23.671875 C 7.078125 -25.328125 8.070312 -26.710938 9.0625 -27.828125 C 10.0625 -28.953125 10.992188 -29.753906 11.859375 -30.234375 C 12.722656 -30.722656 13.410156 -30.765625 13.921875 -30.359375 C 14.023438 -29.898438 14.191406 -29.054688 14.421875 -27.828125 C 14.648438 -26.609375 14.878906 -25.296875 15.109375 -23.890625 C 15.335938 -22.492188 15.539062 -21.195312 15.71875 -20 C 15.894531 -18.800781 16.035156 -17.972656 16.140625 -17.515625 C 16.191406 -17.003906 16.203125 -16.441406 16.171875 -15.828125 C 16.148438 -15.222656 16.035156 -14.675781 15.828125 -14.1875 C 15.628906 -13.707031 15.285156 -13.347656 14.796875 -13.109375 C 14.316406 -12.878906 13.664062 -12.894531 12.84375 -13.15625 C 12.789062 -13.457031 12.675781 -13.953125 12.5 -14.640625 C 12.320312 -15.328125 12.117188 -16.078125 11.890625 -16.890625 C 11.660156 -17.710938 11.429688 -18.492188 11.203125 -19.234375 C 10.972656 -19.972656 10.832031 -20.472656 10.78125 -20.734375 L 9.71875 -21.796875 C 8.4375 -20.929688 7.363281 -19.679688 6.5 -18.046875 C 5.632812 -16.421875 5.019531 -14.675781 4.65625 -12.8125 C 4.300781 -10.945312 4.210938 -9.082031 4.390625 -7.21875 C 4.578125 -5.363281 5.0625 -3.722656 5.84375 -2.296875 C 6.632812 -0.867188 7.71875 0.210938 9.09375 0.953125 C 10.476562 1.691406 12.210938 1.804688 14.296875 1.296875 C 16.390625 0.785156 18.835938 -0.421875 21.640625 -2.328125 C 24.453125 -4.242188 27.664062 -7.140625 31.28125 -11.015625 L 31.28125 -8.796875 C 31.28125 -8.691406 31.023438 -8.332031 30.515625 -7.71875 C 30.003906 -7.113281 29.390625 -6.414062 28.671875 -5.625 C 27.960938 -4.832031 27.25 -4.039062 26.53125 -3.25 C 25.820312 -2.457031 25.210938 -1.832031 24.703125 -1.375 C 23.328125 -0.101562 21.875 1.078125 20.34375 2.171875 C 18.8125 3.273438 17.21875 4.082031 15.5625 4.59375 C 13.90625 5.101562 12.222656 5.265625 10.515625 5.078125 C 8.804688 4.898438 7.085938 4.175781 5.359375 2.90625 Z M 5.359375 2.90625 "/></g></g></g><g fill="#004aad" fill-opacity="1"><g transform="translate(192.664212, 589.251664)"><g><path d="M 17.671875 -5.4375 C 16.804688 -6.957031 16.117188 -8.675781 15.609375 -10.59375 C 15.097656 -12.507812 14.738281 -14.484375 14.53125 -16.515625 C 14.320312 -18.554688 14.226562 -20.570312 14.25 -22.5625 C 14.28125 -24.550781 14.347656 -26.363281 14.453125 -28 C 13.835938 -28.144531 13.171875 -28.085938 12.453125 -27.828125 C 11.742188 -27.578125 10.96875 -27.257812 10.125 -26.875 C 9.289062 -26.5 8.4375 -26.082031 7.5625 -25.625 C 6.695312 -25.164062 5.882812 -24.832031 5.125 -24.625 C 4.363281 -24.425781 3.675781 -24.390625 3.0625 -24.515625 C 2.445312 -24.640625 1.960938 -25.085938 1.609375 -25.859375 C 1.253906 -26.515625 1.289062 -27.046875 1.71875 -27.453125 C 2.15625 -27.859375 2.789062 -28.175781 3.625 -28.40625 C 4.46875 -28.644531 5.453125 -28.828125 6.578125 -28.953125 C 7.703125 -29.078125 8.757812 -29.210938 9.75 -29.359375 C 10.75 -29.515625 11.59375 -29.734375 12.28125 -30.015625 C 12.96875 -30.296875 13.335938 -30.691406 13.390625 -31.203125 L 15.53125 -54.765625 C 15.582031 -55.171875 15.785156 -55.472656 16.140625 -55.671875 C 16.492188 -55.878906 16.863281 -55.984375 17.25 -55.984375 C 17.632812 -55.984375 17.988281 -55.894531 18.3125 -55.71875 C 18.644531 -55.539062 18.8125 -55.222656 18.8125 -54.765625 L 18.8125 -34.421875 C 19.375 -34.265625 19.921875 -34.273438 20.453125 -34.453125 C 20.992188 -34.628906 21.53125 -34.816406 22.0625 -35.015625 C 22.601562 -35.222656 23.140625 -35.378906 23.671875 -35.484375 C 24.203125 -35.585938 24.722656 -35.585938 25.234375 -35.484375 C 25.546875 -35.023438 25.519531 -34.59375 25.15625 -34.1875 C 24.800781 -33.78125 24.472656 -33.5 24.171875 -33.34375 L 23.09375 -32.65625 C 22.582031 -32.351562 22.046875 -32.019531 21.484375 -31.65625 C 20.929688 -31.300781 20.382812 -30.984375 19.84375 -30.703125 C 19.3125 -30.421875 18.96875 -30.234375 18.8125 -30.140625 C 18.757812 -29.578125 18.71875 -28.582031 18.6875 -27.15625 C 18.664062 -25.726562 18.65625 -24.207031 18.65625 -22.59375 C 18.65625 -20.988281 18.664062 -19.472656 18.6875 -18.046875 C 18.71875 -16.617188 18.757812 -15.597656 18.8125 -14.984375 C 18.914062 -13.046875 19.257812 -11.273438 19.84375 -9.671875 C 20.4375 -8.066406 21.238281 -6.804688 22.25 -5.890625 C 23.269531 -4.972656 24.46875 -4.515625 25.84375 -4.515625 C 27.226562 -4.515625 28.835938 -5.175781 30.671875 -6.5 C 30.972656 -5.582031 30.945312 -4.738281 30.59375 -3.96875 C 30.238281 -3.207031 29.703125 -2.609375 28.984375 -2.171875 C 28.273438 -1.742188 27.394531 -1.460938 26.34375 -1.328125 C 25.300781 -1.203125 24.253906 -1.265625 23.203125 -1.515625 C 22.160156 -1.773438 21.140625 -2.222656 20.140625 -2.859375 C 19.148438 -3.503906 18.328125 -4.363281 17.671875 -5.4375 Z M 17.671875 -5.4375 "/></g></g></g><g clip-path="url(#f5f5154891)"><path fill="#004aad" d="M 177.726562 680.808594 C 177.078125 680.835938 176.441406 680.851562 175.808594 680.851562 C 163.265625 680.925781 149.351562 674.648438 138.835938 668.015625 C 133.574219 664.722656 129.148438 661.402344 126.074219 658.929688 C 124.539062 657.691406 123.335938 656.667969 122.535156 655.964844 C 122.132812 655.613281 121.832031 655.339844 121.636719 655.164062 C 121.539062 655.074219 121.46875 655.011719 121.425781 654.972656 C 121.382812 654.933594 121.382812 654.933594 121.382812 654.933594 C 120.945312 654.523438 120.46875 654.1875 119.96875 653.910156 C 118.507812 653.019531 116.746094 652.5 114.839844 652.5 L 113.671875 652.5 C 111.949219 662.847656 102.941406 670.761719 92.109375 670.761719 C 81.28125 670.761719 72.273438 662.847656 70.550781 652.5 L 69.382812 652.5 C 68.1875 652.5 67.054688 652.710938 66.007812 653.082031 C 65.9375 653.097656 65.863281 653.109375 65.792969 653.132812 C 65.589844 653.199219 60.070312 654.777344 54.167969 657.546875 C 51.203125 658.953125 48.132812 660.613281 45.371094 662.890625 C 43.996094 664.046875 42.667969 665.363281 41.539062 667.109375 C 41.234375 667.578125 40.949219 668.09375 40.6875 668.644531 C 39.988281 670.109375 39.496094 671.839844 39.496094 673.757812 C 39.496094 674.914062 39.683594 676.136719 40.0625 677.289062 C 40.0625 677.292969 40.0625 677.292969 40.066406 677.296875 C 40.066406 677.300781 40.070312 677.308594 40.070312 677.316406 C 40.078125 677.332031 40.085938 677.34375 40.089844 677.359375 C 40.980469 680.007812 42.679688 682.074219 44.625 683.714844 C 47.609375 686.195312 51.355469 688.042969 56.410156 689.855469 C 61.460938 691.648438 67.839844 693.332031 76.003906 694.945312 C 76.46875 695.039062 76.9375 695.085938 77.398438 695.085938 C 80.734375 695.085938 83.71875 692.734375 84.390625 689.335938 C 85.160156 685.46875 82.644531 681.710938 78.777344 680.945312 C 68.527344 678.921875 61.640625 676.8125 57.636719 674.996094 C 56.46875 674.472656 55.5625 673.976562 54.894531 673.554688 C 55.257812 673.269531 55.6875 672.964844 56.175781 672.664062 C 56.285156 672.59375 56.410156 672.519531 56.527344 672.449219 C 58.167969 671.433594 60.230469 670.429688 62.238281 669.574219 L 63.476562 675.300781 C 67.023438 676.453125 72.046875 677.796875 79.125 679.195312 C 81.460938 679.660156 83.480469 681.003906 84.804688 682.984375 C 86.128906 684.964844 86.605469 687.34375 86.144531 689.679688 C 85.316406 693.851562 81.636719 696.871094 77.398438 696.871094 C 76.820312 696.871094 76.230469 696.816406 75.65625 696.699219 C 72.820312 696.136719 70.195312 695.5625 67.738281 694.976562 L 67.980469 696.097656 L 67.980469 783.535156 C 67.980469 789.632812 72.921875 794.566406 79.011719 794.566406 C 85.105469 794.566406 90.046875 789.632812 90.046875 783.535156 L 90.046875 702.992188 L 94.179688 702.992188 L 94.179688 783.535156 C 94.179688 789.628906 99.121094 794.566406 105.210938 794.566406 C 111.304688 794.566406 116.242188 789.628906 116.242188 783.535156 L 116.242188 696.097656 L 121.203125 673.207031 C 124.050781 675.339844 127.4375 677.71875 131.265625 680.117188 C 143 687.40625 158.742188 695.058594 175.808594 695.128906 C 176.679688 695.128906 177.542969 695.109375 178.402344 695.066406 C 182.339844 694.878906 185.378906 691.535156 185.191406 687.597656 C 185.007812 683.660156 181.667969 680.621094 177.726562 680.808594 Z M 177.726562 680.808594 " fill-opacity="1" fill-rule="nonzero"/></g><g clip-path="url(#99bcd112cf)"><path fill="#004aad" d="M 112.1875 648.902344 C 112.1875 649.558594 112.15625 650.214844 112.089844 650.871094 C 112.027344 651.523438 111.929688 652.175781 111.800781 652.820312 C 111.671875 653.464844 111.511719 654.101562 111.324219 654.730469 C 111.132812 655.359375 110.910156 655.976562 110.660156 656.585938 C 110.40625 657.191406 110.125 657.785156 109.816406 658.367188 C 109.507812 658.945312 109.167969 659.507812 108.804688 660.054688 C 108.4375 660.601562 108.046875 661.128906 107.628906 661.636719 C 107.214844 662.148438 106.773438 662.632812 106.308594 663.097656 C 105.84375 663.5625 105.355469 664.003906 104.847656 664.421875 C 104.339844 664.839844 103.8125 665.230469 103.265625 665.59375 C 102.71875 665.960938 102.15625 666.296875 101.574219 666.609375 C 100.996094 666.917969 100.402344 667.199219 99.792969 667.449219 C 99.1875 667.703125 98.570312 667.921875 97.9375 668.113281 C 97.308594 668.304688 96.671875 668.464844 96.027344 668.59375 C 95.382812 668.722656 94.734375 668.816406 94.078125 668.882812 C 93.425781 668.945312 92.769531 668.976562 92.113281 668.976562 C 91.453125 668.976562 90.796875 668.945312 90.144531 668.882812 C 89.488281 668.816406 88.839844 668.722656 88.195312 668.59375 C 87.550781 668.464844 86.914062 668.304688 86.285156 668.113281 C 85.65625 667.921875 85.035156 667.703125 84.429688 667.449219 C 83.820312 667.199219 83.226562 666.917969 82.648438 666.609375 C 82.066406 666.296875 81.503906 665.960938 80.957031 665.59375 C 80.410156 665.230469 79.882812 664.839844 79.375 664.421875 C 78.867188 664.003906 78.382812 663.5625 77.917969 663.097656 C 77.453125 662.632812 77.011719 662.148438 76.59375 661.636719 C 76.175781 661.128906 75.785156 660.601562 75.417969 660.054688 C 75.054688 659.507812 74.714844 658.945312 74.40625 658.367188 C 74.097656 657.785156 73.816406 657.191406 73.5625 656.585938 C 73.3125 655.976562 73.089844 655.359375 72.902344 654.730469 C 72.710938 654.101562 72.550781 653.464844 72.421875 652.820312 C 72.292969 652.175781 72.199219 651.523438 72.132812 650.871094 C 72.070312 650.214844 72.035156 649.558594 72.035156 648.902344 C 72.035156 648.246094 72.070312 647.589844 72.132812 646.933594 C 72.199219 646.28125 72.292969 645.632812 72.421875 644.988281 C 72.550781 644.339844 72.710938 643.703125 72.902344 643.074219 C 73.089844 642.445312 73.3125 641.828125 73.5625 641.21875 C 73.816406 640.613281 74.097656 640.019531 74.40625 639.4375 C 74.714844 638.859375 75.054688 638.296875 75.417969 637.75 C 75.785156 637.203125 76.175781 636.675781 76.59375 636.167969 C 77.011719 635.660156 77.453125 635.171875 77.917969 634.707031 C 78.382812 634.242188 78.867188 633.800781 79.375 633.382812 C 79.882812 632.96875 80.410156 632.574219 80.957031 632.210938 C 81.503906 631.84375 82.066406 631.507812 82.648438 631.199219 C 83.226562 630.886719 83.820312 630.605469 84.429688 630.355469 C 85.035156 630.105469 85.65625 629.882812 86.285156 629.691406 C 86.914062 629.5 87.550781 629.339844 88.195312 629.214844 C 88.839844 629.085938 89.488281 628.988281 90.144531 628.925781 C 90.796875 628.859375 91.453125 628.828125 92.113281 628.828125 C 92.769531 628.828125 93.425781 628.859375 94.078125 628.925781 C 94.734375 628.988281 95.382812 629.085938 96.027344 629.214844 C 96.671875 629.339844 97.308594 629.5 97.9375 629.691406 C 98.570312 629.882812 99.1875 630.105469 99.792969 630.355469 C 100.402344 630.605469 100.996094 630.886719 101.574219 631.199219 C 102.15625 631.507812 102.71875 631.84375 103.265625 632.210938 C 103.8125 632.574219 104.339844 632.96875 104.847656 633.382812 C 105.355469 633.800781 105.84375 634.242188 106.308594 634.707031 C 106.773438 635.171875 107.214844 635.660156 107.628906 636.167969 C 108.046875 636.675781 108.4375 637.203125 108.804688 637.75 C 109.167969 638.296875 109.507812 638.859375 109.816406 639.4375 C 110.125 640.019531 110.40625 640.613281 110.660156 641.21875 C 110.910156 641.828125 111.132812 642.445312 111.324219 643.074219 C 111.511719 643.703125 111.671875 644.339844 111.800781 644.988281 C 111.929688 645.632812 112.027344 646.28125 112.089844 646.933594 C 112.15625 647.589844 112.1875 648.246094 112.1875 648.902344 Z M 112.1875 648.902344 " fill-opacity="1" fill-rule="nonzero"/></g></svg>